<?xml version="1.0" encoding="UTF-8"?>
<svg id="Layer_2" data-name="Layer 2" xmlns="http://www.w3.org/2000/svg" xmlns:xlink="http://www.w3.org/1999/xlink" viewBox="0 0 356.74 350.45">
  <defs>
    <style>
      .cls-1 {
        filter: url(#drop-shadow-1);
      }

      .cls-2 {
        fill: #6e9eb3;
        stroke-width: 0px;
      }
    </style>
    <filter id="drop-shadow-1" filterUnits="userSpaceOnUse">
      <feOffset dx="1" dy="1"/>
      <feGaussianBlur result="blur" stdDeviation="3"/>
      <feFlood flood-color="#3a89a5" flood-opacity=".75"/>
      <feComposite in2="blur" operator="in"/>
      <feComposite in="SourceGraphic"/>
    </filter>
  </defs>
  <g id="Wind">
    <g class="cls-1">
      <path class="cls-2" d="m355.27,92.47c-67.04,4.12-134.19,8.24-201.39,6.61-16.77-.41-33.54-1.18-50.27-2.4-13.39-.97-26.9-1.98-39.95-5.3-11.87-3.02-23.62-8.15-32.12-17.23-8.38-8.95-12.38-21.03-11.6-33.22.23-3.53.85-7.01,1.87-10.4.85-2.84,2.26-5.04,5.04-8.27,4.37-5.1,10.02-9.01,16.22-11.54,12.53-5.12,26.92-4.59,38.86,1.84-.05-.03,3.58-7.14,3.32-7.28C62.92-6.75,34.59,2.56,23.66,25.27c-4.93,10.24-8.26,20.62-6.73,32.17,1.71,12.94,9.07,23.97,19.82,31.22,11.04,7.45,24.38,10.78,37.39,12.72,16.12,2.4,32.56,3.16,48.82,3.96,35.83,1.78,71.73,1.68,107.57.6,40.51-1.22,80.97-3.71,121.42-6.19,1.35-.08,2.18-7.21,3.32-7.28h0Z"/>
      <path class="cls-2" d="m350.94,152.09c-91.42-3.42-183.01-1.83-274.25,4.85-25.6,1.87-51.17,4.16-76.69,6.82,1.63-.17,3.98,5.71,5.79,5.52,90.99-9.48,182.48-13.98,273.97-13.37,25.67.17,51.33.75,76.98,1.71-1.92-.07-3.72-5.44-5.79-5.52h0Z"/>
      <path class="cls-2" d="m348.22,231.85c-45.91-17.17-96.23-21.39-144.4-12.38-23.4,4.38-47.2,11.54-68.22,22.88-17.18,9.26-35.48,24.01-37.32,44.9-2.55,28.87,24.82,46.95,46.26,60,2.04,1.24,5.43,2.23,7.02,3.2-19.9-12.12-43.65-27.41-46-53.04-1.95-21.22,14.21-37.68,30.93-48.03,19.43-12.03,42.31-19.43,64.47-24.46,23.55-5.35,47.81-7.51,71.94-6.49,28.13,1.19,55.95,6.82,82.32,16.69-1.77-.66-4.72-2.43-6.98-3.28h0Z"/>
    </g>
  </g>
</svg>