<?xml version="1.0" encoding="UTF-8"?>
<svg id="Layer_2" data-name="Layer 2" xmlns="http://www.w3.org/2000/svg" viewBox="0 0 390 414.49">
  <defs>
    <style>
      .cls-1, .cls-2 {
        fill: none;
        stroke: #6ffabb;
        stroke-linecap: round;
        stroke-linejoin: round;
      }

      .cls-3 {
        fill: #fff;
      }

      .cls-3, .cls-4 {
        stroke-width: 0px;
      }

      .cls-2 {
        stroke-width: 1.03px;
      }

      .cls-4 {
        fill: #6ffabb;
      }
    </style>
  </defs>
  <g id="Title_T_" data-name="Title &amp;apos;T&amp;apos;">
    <g>
      <g>
        <path class="cls-3" d="m189.82,35c-2.91,3.64-4.95,8.01-5.83,12.75l-.49,10v234.78c0,2.01-1.1,3.84-2.85,4.81-20.22,11.26-33.54,33.41-32.03,58.52,1.92,32.04,27.36,57.09,59.42,58.57,35.87,1.65,65.46-26.93,65.46-62.43,0-22.97-12.39-43.05-30.85-53.9-1.98-1.16-3.15-3.27-3.15-5.56V57.75l-.41-10c-.81-4.77-2.83-9.13-5.74-12.75h-43.53Z"/>
        <line class="cls-1" x1="239.5" y1="290.5" x2="230" y2="290.5"/>
        <line class="cls-1" x1="239.5" y1="283.74" x2="227" y2="283.74"/>
        <line class="cls-1" x1="239.5" y1="276.98" x2="230" y2="276.98"/>
        <line class="cls-1" x1="239.5" y1="270.23" x2="230" y2="270.23"/>
        <line class="cls-1" x1="239.5" y1="263.47" x2="230" y2="263.47"/>
        <line class="cls-1" x1="239.5" y1="256.71" x2="227" y2="256.71"/>
        <line class="cls-1" x1="239.5" y1="249.95" x2="230" y2="249.95"/>
        <line class="cls-1" x1="239.5" y1="243.2" x2="230" y2="243.2"/>
        <line class="cls-1" x1="239.5" y1="236.44" x2="230" y2="236.44"/>
        <line class="cls-1" x1="239.5" y1="229.68" x2="227" y2="229.68"/>
        <line class="cls-1" x1="239.5" y1="222.92" x2="230" y2="222.92"/>
        <line class="cls-1" x1="239.5" y1="216.17" x2="230" y2="216.17"/>
        <line class="cls-1" x1="239.5" y1="209.41" x2="230" y2="209.41"/>
        <line class="cls-1" x1="239.5" y1="202.65" x2="227" y2="202.65"/>
        <line class="cls-1" x1="239.5" y1="195.89" x2="230" y2="195.89"/>
        <line class="cls-1" x1="239.5" y1="189.14" x2="230" y2="189.14"/>
        <line class="cls-1" x1="239.5" y1="182.38" x2="230" y2="182.38"/>
        <line class="cls-1" x1="239.5" y1="175.5" x2="227" y2="175.5"/>
        <line class="cls-1" x1="239.5" y1="168.86" x2="230" y2="168.86"/>
        <line class="cls-1" x1="239.5" y1="162.11" x2="230" y2="162.11"/>
        <line class="cls-1" x1="239.5" y1="155.35" x2="230" y2="155.35"/>
        <line class="cls-1" x1="239.5" y1="148.5" x2="227" y2="148.5"/>
        <line class="cls-1" x1="239.5" y1="141.83" x2="230" y2="141.83"/>
        <line class="cls-1" x1="239.5" y1="135.08" x2="230" y2="135.08"/>
        <line class="cls-1" x1="239.5" y1="128.32" x2="230" y2="128.32"/>
        <line class="cls-1" x1="239.5" y1="121.5" x2="226" y2="121.5"/>
        <line class="cls-1" x1="239.5" y1="114.8" x2="230" y2="114.8"/>
        <line class="cls-1" x1="239.5" y1="108.05" x2="230" y2="108.05"/>
        <line class="cls-1" x1="239.5" y1="101.29" x2="230" y2="101.29"/>
        <line class="cls-1" x1="239.5" y1="94.5" x2="226" y2="94.5"/>
        <line class="cls-2" x1="239.68" y1="67.5" x2="239.5" y2="67.5"/>
        <path class="cls-4" d="m216.25,324.39c15.02,2.4,26.5,15.41,26.5,31.11,0,17.4-14.1,31.5-31.5,31.5s-31.5-14.1-31.5-31.5c0-15.7,11.48-28.71,26.5-31.11h10Z"/>
        <path class="cls-4" d="m206.25,324.39V112.29c0-2.87,2.35-5.41,5.22-5.29,1.29.06,2.46.61,3.31,1.46.91.91,1.47,2.16,1.47,3.54v212.39h-10Z"/>
      </g>
      <g>
        <path class="cls-3" d="m171.3,91h6.76s6.76,0,6.76,0h6.76s6.75,0,6.75,0h6.76s6.76,0,6.76,0h6.76s3.89,0,3.89,0h2.86s6.76,0,6.76,0h6.88s6.64,0,6.64,0h6.75s6.76,0,6.76,0h6.85s6.67,0,6.67,0h6.75s6.76,0,6.76,0h6.82s6.7,0,6.7,0h6.75s6.76,0,6.76,0h6.79s6.73,0,6.73,0h6.75s6.52,0,6.52,0h7s15,0,15,0c7.73,0,14.73-3.14,19.8-8.2,5.47-5.48,8.7-13.23,8.14-21.71-.99-14.79-13.66-26.09-28.48-26.09h-161.71s-10.49,0-10.49,0h-67.26s-.03,0-.03,0c-2.01,0-3.84-1.1-4.81-2.85C105.9,11.93,83.75-1.39,58.64.12,26.6,2.04,1.55,27.48.07,59.54c-1.65,35.87,26.93,65.46,62.43,65.46,22.97,0,43.05-12.39,53.9-30.85,1.16-1.98,3.27-3.15,5.56-3.15h2.04s6.76,0,6.76,0h6.76s6.75,0,6.75,0h6.76s6.76,0,6.76,0h6.76s1.95,0,1.95,0h4.8Z"/>
        <line class="cls-1" x1="124" y1="91" x2="124" y2="81.5"/>
        <line class="cls-1" x1="130.76" y1="91" x2="130.76" y2="78.5"/>
        <line class="cls-1" x1="137.52" y1="91" x2="137.52" y2="81.5"/>
        <line class="cls-1" x1="144.27" y1="91" x2="144.27" y2="81.5"/>
        <line class="cls-1" x1="151.03" y1="91" x2="151.03" y2="81.5"/>
        <line class="cls-1" x1="157.79" y1="91" x2="157.79" y2="78.5"/>
        <line class="cls-1" x1="164.55" y1="91" x2="164.55" y2="81.5"/>
        <line class="cls-1" x1="171.3" y1="91" x2="171.3" y2="81.5"/>
        <line class="cls-1" x1="178.06" y1="91" x2="178.06" y2="81.5"/>
        <line class="cls-1" x1="184.82" y1="91" x2="184.82" y2="78.5"/>
        <line class="cls-1" x1="191.58" y1="91" x2="191.58" y2="81.5"/>
        <line class="cls-1" x1="198.33" y1="91" x2="198.33" y2="81.5"/>
        <line class="cls-1" x1="205.09" y1="91" x2="205.09" y2="81.5"/>
        <line class="cls-1" x1="211.85" y1="91" x2="211.85" y2="78.5"/>
        <line class="cls-1" x1="218.61" y1="91" x2="218.61" y2="81.5"/>
        <line class="cls-1" x1="225.36" y1="91" x2="225.36" y2="81.5"/>
        <line class="cls-1" x1="232.12" y1="91" x2="232.12" y2="81.5"/>
        <line class="cls-1" x1="239" y1="91" x2="239" y2="78.5"/>
        <line class="cls-1" x1="245.64" y1="91" x2="245.64" y2="81.5"/>
        <line class="cls-1" x1="252.39" y1="91" x2="252.39" y2="81.5"/>
        <line class="cls-1" x1="259.15" y1="91" x2="259.15" y2="81.5"/>
        <line class="cls-1" x1="266" y1="91" x2="266" y2="78.5"/>
        <line class="cls-1" x1="272.67" y1="91" x2="272.67" y2="81.5"/>
        <line class="cls-1" x1="279.42" y1="91" x2="279.42" y2="81.5"/>
        <line class="cls-1" x1="286.18" y1="91" x2="286.18" y2="81.5"/>
        <line class="cls-1" x1="293" y1="91" x2="293" y2="77.5"/>
        <line class="cls-1" x1="299.7" y1="91" x2="299.7" y2="81.5"/>
        <line class="cls-1" x1="306.45" y1="91" x2="306.45" y2="81.5"/>
        <line class="cls-1" x1="313.21" y1="91" x2="313.21" y2="81.5"/>
        <line class="cls-1" x1="320" y1="91" x2="320" y2="77.5"/>
        <line class="cls-1" x1="326.73" y1="91" x2="326.73" y2="81.5"/>
        <line class="cls-1" x1="333.48" y1="91" x2="333.48" y2="81.5"/>
        <line class="cls-1" x1="340" y1="91" x2="340" y2="81.5"/>
        <line class="cls-2" x1="347" y1="91.18" x2="347" y2="77.31"/>
        <path class="cls-4" d="m90.11,67.75c-2.4,15.02-15.41,26.5-31.11,26.5-17.4,0-31.5-14.1-31.5-31.5,0-17.4,14.1-31.5,31.5-31.5,15.7,0,28.71,11.48,31.11,26.5v10Z"/>
        <path class="cls-4" d="m90.11,57.75h212.1c2.87,0,5.41,2.35,5.29,5.22-.06,1.29-.61,2.46-1.46,3.31-.91.91-2.16,1.47-3.54,1.47H90.11s0-10,0-10Z"/>
      </g>
    </g>
  </g>
</svg>